<svg width="32" height="32" viewBox="0 0 32 32" fill="none" xmlns="http://www.w3.org/2000/svg">
<path d="M32 16C32 24.8366 24.8366 32 16 32C7.16344 32 0 24.8366 0 16C0 7.16344 7.16344 0 16 0C24.8366 0 32 7.16344 32 16Z" fill="white"/>
<path fill-rule="evenodd" clip-rule="evenodd" d="M16 2C23.732 2 30 8.26801 30 16C30 23.732 23.732 30 16 30C8.26801 30 2 23.732 2 16C2 8.26801 8.26801 2 16 2ZM19.2422 9.00781L15.9609 9.81055L12.7607 9.00977C12.6809 8.98888 12.5959 9.00582 12.5293 9.05273L9.1123 11.5078C9.02055 11.5731 8.97934 11.6895 9.00977 11.7979L12.0859 22.7998C12.1126 22.8938 12.1887 22.9672 12.2871 22.9922C12.3897 23.0144 12.4871 22.9827 12.5537 22.9121L16.0059 19.2646L19.4453 22.9121C19.4972 22.9669 19.5703 22.9999 19.6475 23C19.6687 23 19.6903 22.9974 19.7129 22.9922C19.81 22.9687 19.8873 22.8956 19.9141 22.8018L22.9902 11.7998C23.0196 11.6926 22.9783 11.5764 22.8877 11.5098V11.5078L19.4717 9.05273C19.405 9.00441 19.3208 8.98821 19.2422 9.00781Z" fill="#E41874"/>
</svg>
